<svg id="Layer_2" data-name="Layer 2" xmlns="http://www.w3.org/2000/svg" viewBox="0 0 326.71 116.51"><defs><style>.cls-1{fill:#00c05a;}.cls-2{fill:#3e414f;}</style></defs><title>Jivosite</title><g id="_Группа_" data-name="&lt;Группа&gt;"><g id="_Группа_2" data-name="&lt;Группа&gt;"><path id="_Контур_" data-name="&lt;Контур&gt;" class="cls-1" d="M0.06,3.41C-1.55,33.66,23.29,38,23.29,38,22,4.84.06,3.41,0.06,3.41Z" transform="translate(0.1 -3.41)"/></g></g><path class="cls-2" d="M45,41.81H38.58a2.52,2.52,0,0,0-1.81.83A2.47,2.47,0,0,0,36,44.37V92.55a2.47,2.47,0,0,0,.78,1.81,2.43,2.43,0,0,0,1.81.78H45a2.39,2.39,0,0,0,1.73-.78,2.3,2.3,0,0,0,.83-1.81V44.4a2.45,2.45,0,0,0-.83-1.73A2.21,2.21,0,0,0,45,41.81Z" transform="translate(0.1 -3.41)"/><path class="cls-2" d="M103.81,41.94h-5.2c-1.94,0-3.16.44-3.6,1.47L80.16,76H79.9L65.75,43.41a2.39,2.39,0,0,0-2.33-1.47h-7a2.21,2.21,0,0,0-2.07.91,1.9,1.9,0,0,0,.13,2.07L77.49,95a2.36,2.36,0,0,0,2.33,1.35h0.7A2.35,2.35,0,0,0,82.72,95l23-50.12a1.9,1.9,0,0,0,.13-2.07A2.3,2.3,0,0,0,103.81,41.94Z" transform="translate(0.1 -3.41)"/><path class="cls-2" d="M135,40.72a25.74,25.74,0,0,0-19.17,8.18,26.91,26.91,0,0,0-8,19.48,27.59,27.59,0,0,0,7.92,19.69,26.19,26.19,0,0,0,38.27,0,27.38,27.38,0,0,0,8-19.69,26.91,26.91,0,0,0-8-19.48A25.62,25.62,0,0,0,135,40.72Zm11.26,39.82a15.57,15.57,0,0,1-22.59.08A17.19,17.19,0,0,1,119,68.41a16.57,16.57,0,0,1,4.58-11.9A15.12,15.12,0,0,1,135,51.74a14.77,14.77,0,0,1,11.26,4.76,16.57,16.57,0,0,1,4.58,11.9A17.49,17.49,0,0,1,146.22,80.54Z" transform="translate(0.1 -3.41)"/><path class="cls-2" d="M200.81,69.73a37.12,37.12,0,0,0-5.2-3.42c-1.6-.83-3.93-1.94-7-3.16a31.12,31.12,0,0,1-6.88-3.67,5,5,0,0,1-2.25-4.11A4,4,0,0,1,181.33,52a8.26,8.26,0,0,1,5-1.35,29.16,29.16,0,0,1,11.38,2.64c1.6,0.7,2.77.31,3.47-1l1.86-3.67c0.78-1.55.39-2.82-1.16-3.93-4-2.64-9.21-3.93-15.58-3.93-5.93,0-10.35,1.47-13.25,4.37a14.08,14.08,0,0,0-4.37,10.17,13.6,13.6,0,0,0,3.67,9.91,35.12,35.12,0,0,0,10.74,6.88,51.4,51.4,0,0,1,8.75,4.68,5.65,5.65,0,0,1,2.64,4.5A4.53,4.53,0,0,1,192.63,85a8.39,8.39,0,0,1-5.2,1.42,27,27,0,0,1-13.25-3.93c-1.6-.91-2.77-0.65-3.47.7l-2.43,4.94c-0.57,1-.26,1.94.91,2.77a30.15,30.15,0,0,0,17.49,5.41c5.8,0,10.43-1.47,14-4.58a14.1,14.1,0,0,0,5.2-11,16,16,0,0,0-1.16-6.31A11.46,11.46,0,0,0,200.81,69.73Z" transform="translate(0.1 -3.41)"/><path class="cls-2" d="M223.47,41.81H217a2.52,2.52,0,0,0-1.81.83,2.47,2.47,0,0,0-.78,1.73V92.55a2.47,2.47,0,0,0,.78,1.81,2.43,2.43,0,0,0,1.81.78h6.44a2.39,2.39,0,0,0,1.73-.78,2.3,2.3,0,0,0,.83-1.81V44.4a2.45,2.45,0,0,0-.83-1.73A2.37,2.37,0,0,0,223.47,41.81Z" transform="translate(0.1 -3.41)"/><path class="cls-2" d="M269.66,84.14c-0.57-1.6-1.6-2-3.08-1.16A16.87,16.87,0,0,1,258,85.48a4.16,4.16,0,0,1-3.16-1.16c-0.7-.78-1.09-2.2-1.09-4.24V51.72h14a2.52,2.52,0,0,0,1.81-.83,2.39,2.39,0,0,0,.78-1.73V44.47a2.35,2.35,0,0,0-.78-1.86,2.68,2.68,0,0,0-1.81-.7h-14V27a2.73,2.73,0,0,0-.7-1.81,2.19,2.19,0,0,0-1.73-.78h-6.57a2.47,2.47,0,0,0-1.81.78,2.43,2.43,0,0,0-.78,1.81V41.86H236a2.21,2.21,0,0,0-2.51,2.51v4.68a2.47,2.47,0,0,0,.78,1.81,2.43,2.43,0,0,0,1.81.78h6.11V80.46c0,5.15,1,9.08,2.9,11.82s5.46,4.11,10.48,4.11a28.86,28.86,0,0,0,8.49-1.29,28.21,28.21,0,0,0,6.31-2.51c1.42-.83,1.81-1.86,1.29-3.08Z" transform="translate(0.1 -3.41)"/><path class="cls-2" d="M319.62,47.66a23.89,23.89,0,0,0-17.36-6.88c-7.79,0-14.2,2.69-19.09,8.1a28,28,0,0,0-7.4,19.61,28.63,28.63,0,0,0,7.32,19.87c4.89,5.33,11.33,8,19.22,8q12.15,0,19.69-6.57a2.26,2.26,0,0,0,.26-3.6l-3.08-4.81c-0.78-1.09-1.81-1.16-3.08-.26a22,22,0,0,1-13,4.5,15.37,15.37,0,0,1-11.26-4.45,13.9,13.9,0,0,1-4.68-10.09h36.74a2.21,2.21,0,0,0,2.43-2.33,24.82,24.82,0,0,0,.26-3.67A23.82,23.82,0,0,0,319.62,47.66Zm-31.9,15A13.21,13.21,0,0,1,292.09,54,14.36,14.36,0,0,1,302,50.55a12.92,12.92,0,0,1,9.26,3.54,12,12,0,0,1,3.86,8.56h-27.4Z" transform="translate(0.1 -3.41)"/><path class="cls-2" d="M20.83,41.81H2.49a2.45,2.45,0,0,0-1.73.83A2.44,2.44,0,0,0-.07,44.4v6.44a2.52,2.52,0,0,0,.83,1.81,2.47,2.47,0,0,0,1.73.78H11.8V99.82a8.53,8.53,0,0,1-7.45,8.49H2.49a2.47,2.47,0,0,0-1.81.78,2.43,2.43,0,0,0-.78,1.81v6.44a2.73,2.73,0,0,0,.7,1.81,2.46,2.46,0,0,0,1.86.78H3.37a20,20,0,0,0,19.9-18.73,5.92,5.92,0,0,0,.1-1.22V44.4a2.47,2.47,0,0,0-.78-1.81A2.28,2.28,0,0,0,20.83,41.81Z" transform="translate(0.1 -3.41)"/></svg>